<?xml version="1.0" encoding="utf-8"?>
<!-- Generator: Adobe Illustrator 20.1.0, SVG Export Plug-In . SVG Version: 6.00 Build 0)  -->
<svg version="1.1" id="Layer_1" xmlns="http://www.w3.org/2000/svg" xmlns:xlink="http://www.w3.org/1999/xlink" x="0px" y="0px"
	 viewBox="0 0 300 300" style="enable-background:new 0 0 300 300;" xml:space="preserve">
<style type="text/css">
	.st0{fill:#00A4DE;}
	.st1{fill:#ECF7FF;}
</style>
<g>
	<path class="st0" d="M178.1,45.3l-0.9,3.2c4.7,8.2,10.1,15.8,16.4,23c0.3,0.4,0.6,0.8,1,1.2l-0.1,0.3c0.5,0.1,1,0.2,1.6,0.3
		c9.2,1.9,18.5,2.8,27.8,2.9l2.8-2.9l6.3-6.3l5.3-5.3c-2.9-6.9-7.9-12.7-13.8-17.3c4.6-5,0.9-9.4,2-16.4c0.3-1.6-0.7-2.9-2.1-3.9
		c-0.4-0.3-0.8-0.6-1.3-0.8c-0.4-0.3-0.9-0.5-1.3-0.7c-1.7-0.7-3.3-0.9-4.5,0.1c-5.4,4.4-10.7,3.9-12.9,10
		c-7.1-2.9-14.6-4.2-22.1-3.3l-1.9,7.3L178.1,45.3z M208.9,44.9c0.5,0.2,0.9,0.4,1.4,0.6c0.4,0.3,0.8,0.6,1.2,0.9
		c7.8,5.9,12.2,12.8,14.1,20.7c-8.5,0.3-16.8-0.1-25.2-1.5c-0.6-0.1-1.1-0.2-1.6-0.3c-0.4-0.4-0.7-0.8-1-1.3
		c-5.3-6.5-10-13.5-13.9-21C191.8,40.8,199.9,41.1,208.9,44.9z"/>
	<path class="st0" d="M256.7,59.1c-4.9-8.4-7.5,4.2-4.7,9.1C256.9,76.6,259.5,64,256.7,59.1z"/>
	<path class="st0" d="M271.9,102.6c2.8,4.9,15,8.9,10.1,0.5C279.2,98.2,267.1,94.1,271.9,102.6z"/>
	<path class="st0" d="M296.2,148.5c-0.2-1.8-0.9-3.3-2.4-3.8c-6.5-2.5-8.7-7.4-15.1-6.2c-1-7.5-3.5-14.7-8.1-20.8l-7.3,1.9l-8.6,2.3
		l-3.2,0.9c-4.7,8.2-8.7,16.7-11.7,25.7c-0.2,0.5-0.4,1-0.6,1.5l0,0c0.2,0.5,0.4,1,0.6,1.5c3,9,7,17.5,11.7,25.7l3.3,0.9l8.5,2.3
		l7.3,1.9c4.6-6.1,7.1-13.3,8.2-20.8c6.4,1.2,8.6-3.7,15.1-6.1c1.5-0.6,2.2-2,2.4-3.9c0-0.5,0-1,0-1.5
		C296.3,149.5,296.2,149,296.2,148.5z M270.4,151.5c-1.1,9.7-5,17-10.8,22.6c-4.5-7.2-8.3-14.7-11.3-22.6c-0.2-0.5-0.4-1-0.6-1.5
		c0.2-0.5,0.4-1,0.6-1.5c3-7.9,6.7-15.4,11.3-22.6c5.9,5.6,9.7,12.9,10.9,22.6c0.1,0.5,0.1,1,0.2,1.5
		C270.6,150.5,270.5,151,270.4,151.5z"/>
	<path class="st0" d="M271.9,197.4c-4.8,8.4,7.4,4.4,10.1-0.5C286.9,188.5,274.7,192.6,271.9,197.4z"/>
	<path class="st0" d="M252,231.9c-2.8,4.9-0.2,17.4,4.7,9C259.5,236,256.9,223.4,252,231.9z"/>
	<path class="st0" d="M224.5,255.6c5.9-4.6,10.8-10.4,13.7-17.3l-5.3-5.4l-6.3-6.3l-2.8-2.8c-9.3,0-18.6,1-27.8,2.8
		c-0.5,0.2-1,0.3-1.6,0.3l0.1,0.3c-0.3,0.4-0.6,0.8-1,1.3c-6.3,7.1-11.7,14.8-16.4,22.9l0.9,3.2l2.3,8.6l2,7.3
		c7.5,1,15.1-0.5,22.1-3.3c2.1,6.1,7.5,5.6,12.8,10c1.2,1,2.8,0.8,4.5,0.1c0.4-0.2,0.9-0.5,1.3-0.7c0.5-0.2,0.9-0.5,1.3-0.7
		c1.4-1.1,2.4-2.5,2.1-4C225.4,265,229.1,260.6,224.5,255.6z M211.5,253.5c-0.4,0.3-0.8,0.6-1.2,0.9c-0.5,0.3-0.9,0.4-1.4,0.6
		c-9,3.9-17.2,4.2-25,1.9c3.9-7.5,8.6-14.5,13.9-21.1c0.3-0.4,0.6-0.8,1-1.2v0c0.5,0,1-0.1,1.6-0.2c8.3-1.4,16.7-1.9,25.2-1.6
		C223.7,240.7,219.3,247.7,211.5,253.5z"/>
	<path class="st0" d="M169.9,279.3c-9.7,0-0.1,8.6,5.5,8.6C185.1,287.8,175.5,279.3,169.9,279.3z"/>
	<path class="st0" d="M124.6,287.8c5.6,0,15.2-8.6,5.5-8.6C124.5,279.3,114.9,287.8,124.6,287.8z"/>
	<path class="st0" d="M121.9,254.7l0.9-3.2c-4.7-8.2-10.1-15.8-16.4-22.9c-0.3-0.4-0.6-0.9-1-1.3l0.1-0.3c-0.5,0-1-0.1-1.6-0.3
		c-9.2-1.8-18.4-2.8-27.8-2.8l-2.8,2.8l-6.2,6.3l-5.4,5.4c2.9,6.9,7.9,12.6,13.8,17.3c-4.6,5-0.9,9.3-2,16.3c-0.3,1.5,0.7,2.9,2.2,4
		c0.4,0.3,0.8,0.5,1.3,0.7c0.4,0.3,0.9,0.6,1.3,0.7c1.7,0.7,3.3,0.9,4.5-0.1c5.4-4.4,10.7-3.9,12.8-10c7.1,2.9,14.6,4.3,22.1,3.3
		l2-7.3L121.9,254.7z M91.1,255.1c-0.5-0.2-0.9-0.4-1.4-0.6c-0.4-0.3-0.8-0.6-1.2-0.9c-7.8-5.8-12.2-12.8-14.1-20.7
		c8.5-0.3,16.9,0.2,25.2,1.6c0.5,0,1.1,0.1,1.6,0.2c0.3,0.4,0.7,0.8,1,1.2c5.4,6.6,10,13.5,13.9,21.1
		C108.3,259.2,100.1,258.9,91.1,255.1z"/>
	<path class="st0" d="M43.3,240.9c4.9,8.4,7.5-4.2,4.7-9C43.1,223.4,40.5,236,43.3,240.9z"/>
	<path class="st0" d="M28.1,197.4c-2.8-4.8-15-8.9-10.2-0.5C20.8,201.8,32.9,205.9,28.1,197.4z"/>
	<path class="st0" d="M29.4,182.3l7.3-2l8.6-2.3l3.3-0.9c4.7-8.1,8.7-16.7,11.7-25.7c0.2-0.5,0.4-1,0.6-1.5c-0.2-0.5-0.4-1-0.6-1.5
		c-3-9-7-17.5-11.7-25.7l-3.3-0.9l-8.6-2.3l-7.3-1.9c-4.6,6.1-7.2,13.3-8.2,20.8c-6.4-1.2-8.6,3.6-15.1,6.1c-1.5,0.5-2.1,2-2.4,3.8
		c0,0.5-0.1,1,0,1.5c0,0.5,0,1,0,1.5c0.2,1.8,0.9,3.3,2.4,3.9c6.5,2.4,8.7,7.3,15.1,6.1C22.3,169,24.8,176.2,29.4,182.3z
		 M29.6,148.5c1.1-9.7,5-17,10.9-22.6c4.5,7.2,8.3,14.7,11.2,22.6c0.2,0.5,0.4,1,0.6,1.5c-0.2,0.5-0.4,1-0.6,1.5
		c-3,7.9-6.7,15.4-11.2,22.6c-5.9-5.6-9.7-12.9-10.9-22.6c-0.1-0.5-0.1-1-0.2-1.5C29.5,149.5,29.5,149,29.6,148.5z"/>
	<path class="st0" d="M28.1,102.6c4.8-8.4-7.3-4.4-10.1,0.5C13.1,111.5,25.3,107.5,28.1,102.6z"/>
	<path class="st0" d="M48,68.2c2.8-4.9,0.2-17.5-4.6-9C40.5,64,43.1,76.6,48,68.2z"/>
	<path class="st0" d="M75.5,44.4C69.6,49,64.7,54.8,61.7,61.7l5.4,5.3l6.2,6.3l2.8,2.9c9.3,0,18.6-1,27.8-2.9c0.5-0.1,1-0.2,1.5-0.3
		l-0.1-0.2c0.3-0.4,0.6-0.8,1-1.2c6.3-7.1,11.7-14.8,16.4-23l-0.9-3.2l-2.3-8.6l-2-7.3c-7.5-1-15.1,0.5-22.1,3.3
		c-2.1-6.1-7.5-5.6-12.8-10c-1.2-1-2.9-0.8-4.5-0.1c-0.5,0.2-0.9,0.4-1.3,0.7c-0.4,0.3-0.9,0.5-1.3,0.8c-1.5,1.1-2.4,2.4-2.2,3.9
		C74.6,35,70.9,39.4,75.5,44.4z M88.5,46.4c0.4-0.3,0.8-0.5,1.2-0.9c0.5-0.2,0.9-0.4,1.4-0.6c9-3.9,17.2-4.2,25-1.9
		c-3.9,7.5-8.6,14.5-13.9,21c-0.3,0.4-0.6,0.9-1,1.3c-0.5,0.1-1,0.1-1.6,0.3c-8.3,1.4-16.7,1.9-25.2,1.5
		C76.3,59.3,80.7,52.3,88.5,46.4z"/>
	<path class="st0" d="M130.1,20.7c9.7,0,0.1-8.6-5.5-8.6C114.9,12.2,124.5,20.7,130.1,20.7z"/>
	<path class="st0" d="M175.4,12.2c-5.6,0-15.2,8.6-5.5,8.6C175.5,20.7,185.1,12.2,175.4,12.2z"/>
</g>
<g>
	<g>
		<path class="st1" d="M197.4,28.1c8.4,4.8,4.4-7.4-0.5-10.2C188.5,13.1,192.5,25.3,197.4,28.1z"/>
		<path class="st1" d="M231.9,48c4.9,2.8,17.4,0.2,9-4.6C236,40.6,223.5,43.1,231.9,48z"/>
		<path class="st1" d="M233,67.1l-6.3,6.3l-2.8,2.8c0,9.4,1,18.6,2.8,27.9c0.1,0.5,0.2,1,0.3,1.5l0.2-0.1c0.4,0.4,0.8,0.7,1.3,1
			c7.1,6.3,14.8,11.7,23,16.4l3.2-1l8.6-2.3l7.3-1.9c1-7.6-0.5-15.1-3.3-22.1c6.1-2.2,5.6-7.5,10-12.9c1-1.2,0.9-2.8,0.1-4.5
			c-0.2-0.4-0.4-0.9-0.7-1.3h0c-0.3-0.4-0.5-0.9-0.8-1.3c-1.1-1.4-2.4-2.4-3.9-2.1c-7,1.1-11.3-2.6-16.3,2
			c-4.6-5.9-10.4-10.8-17.3-13.8L233,67.1z M253.6,88.5c0.3,0.4,0.6,0.8,0.9,1.2c0.2,0.4,0.4,0.9,0.6,1.4c3.9,9,4.2,17.2,1.9,24.9
			c-7.5-3.9-14.5-8.6-21.1-13.9c-0.4-0.3-0.8-0.6-1.3-1v0c-0.1-0.6-0.2-1.1-0.2-1.6c-1.4-8.3-1.9-16.7-1.5-25.2
			C240.8,76.3,247.7,80.7,253.6,88.5z"/>
		<path class="st1" d="M287.8,124.6c0-9.7-8.6-0.1-8.6,5.5C279.3,139.8,287.8,130.3,287.8,124.6z"/>
		<path class="st1" d="M279.3,169.9c0,5.7,8.6,15.3,8.6,5.5C287.8,169.8,279.3,160.2,279.3,169.9z"/>
		<path class="st1" d="M267.2,204.5c2.9-7.1,4.3-14.5,3.3-22.1l-7.3-1.9l-8.6-2.3l-3.3-0.9c-8.2,4.7-15.8,10.1-22.9,16.4
			c-0.4,0.3-0.8,0.6-1.3,1l-0.2-0.1c-0.1,0.5-0.2,1-0.3,1.5c-1.8,9.3-2.8,18.5-2.8,27.9l2.8,2.8l6.3,6.3l5.3,5.3
			c6.9-2.9,12.7-7.8,17.3-13.8c5,4.6,9.3,0.9,16.3,2c1.5,0.3,2.9-0.7,4-2.2c0.3-0.4,0.5-0.8,0.8-1.3v0c0.3-0.4,0.5-0.9,0.7-1.3
			c0.7-1.7,0.9-3.3-0.1-4.5C272.9,211.9,273.4,206.7,267.2,204.5z M255.1,209c-0.2,0.4-0.4,0.9-0.6,1.3c-0.3,0.4-0.6,0.8-0.9,1.2
			c-5.9,7.8-12.8,12.2-20.7,14.1c-0.3-8.5,0.2-16.9,1.5-25.2c0.1-0.6,0.2-1.1,0.2-1.6c0.4-0.3,0.8-0.6,1.3-1
			c6.5-5.4,13.5-10,21.1-13.9C259.2,191.7,258.9,200,255.1,209z"/>
		<path class="st1" d="M231.9,252.1c-8.4,4.8,4.2,7.4,9,4.6C249.3,251.8,236.7,249.2,231.9,252.1z"/>
		<path class="st1" d="M197.4,271.9c-4.9,2.8-8.9,15-0.5,10.1C201.8,279.3,205.9,267.1,197.4,271.9z"/>
		<path class="st1" d="M178,254.8l-0.9-3.3c-8.1-4.7-16.7-8.6-25.7-11.6c-0.5-0.2-1-0.4-1.5-0.6l0,0c-0.5,0.2-1,0.4-1.5,0.6
			c-9,3-17.5,7-25.7,11.6l-0.9,3.3l-2.3,8.6l-1.9,7.3c6.1,4.6,13.3,7.1,20.8,8.1c-1.3,6.4,3.7,8.6,6.1,15.1c0.6,1.4,2,2.1,3.9,2.3
			c0.5,0,1,0,1.5,0c0.5,0,1,0,1.5,0c1.8-0.2,3.3-0.9,3.8-2.3c2.4-6.5,7.3-8.8,6.1-15.1c7.6-1,14.8-3.5,20.8-8.1l-2-7.3L178,254.8z
			 M151.5,270.4c-0.5,0-1,0.2-1.5,0.2c-0.5,0-1-0.1-1.5-0.2c-9.7-1.1-17-4.9-22.6-10.8c7.2-4.5,14.7-8.3,22.6-11.3
			c0.5-0.2,1-0.4,1.5-0.6c0.5,0.2,1,0.4,1.5,0.5c7.9,3,15.4,6.8,22.5,11.3C168.5,265.5,161.2,269.3,151.5,270.4z"/>
		<path class="st1" d="M102.6,271.9c-8.4-4.9-4.4,7.3,0.5,10.2C111.5,286.9,107.5,274.7,102.6,271.9z"/>
		<path class="st1" d="M68.1,252.1c-4.9-2.9-17.4-0.3-9,4.6C64,259.5,76.5,256.9,68.1,252.1z"/>
		<path class="st1" d="M67,233l6.3-6.3l2.8-2.8c0-9.3-1-18.6-2.9-27.9c-0.1-0.5-0.2-1-0.3-1.5l-0.2,0.1c-0.4-0.3-0.8-0.6-1.2-1
			c-7.1-6.3-14.8-11.7-23-16.4l-3.3,0.9l-8.6,2.3l-7.3,1.9c-1,7.6,0.5,15.1,3.3,22.1c-6.1,2.2-5.6,7.5-10,12.9
			c-1,1.2-0.8,2.8-0.1,4.5c0.2,0.4,0.4,0.9,0.7,1.3c0.2,0.5,0.5,0.9,0.8,1.3c1.1,1.5,2.4,2.4,3.9,2.2c7-1.2,11.3,2.6,16.4-2
			c4.6,6,10.3,10.9,17.3,13.8L67,233z M46.5,211.5c-0.3-0.4-0.6-0.8-0.9-1.2c-0.2-0.4-0.4-0.9-0.6-1.3c-3.9-9-4.2-17.2-1.9-25
			c7.5,3.9,14.5,8.6,21,13.9c0.4,0.3,0.8,0.7,1.3,1l0,0c0.1,0.5,0.2,1,0.3,1.6c1.3,8.3,1.9,16.7,1.5,25.2
			C59.2,223.7,52.3,219.3,46.5,211.5z"/>
		<path class="st1" d="M12.2,175.4c0,9.7,8.6,0.1,8.6-5.5C20.7,160.2,12.2,169.8,12.2,175.4z"/>
		<path class="st1" d="M20.7,130.1c0-5.6-8.6-15.2-8.6-5.5C12.2,130.3,20.7,139.8,20.7,130.1z"/>
		<path class="st1" d="M32.7,95.6c-2.9,7-4.3,14.5-3.3,22.1l7.3,1.9l8.6,2.3l3.3,1c8.1-4.8,15.8-10.1,22.9-16.4
			c0.4-0.3,0.8-0.6,1.2-1l0.2,0.1c0.1-0.5,0.2-1,0.3-1.5c1.9-9.3,2.8-18.5,2.8-27.9l-2.8-2.8L67,67.1l-5.3-5.3
			c-6.9,2.9-12.7,7.8-17.3,13.8c-5-4.6-9.3-0.9-16.3-2c-1.5-0.3-2.9,0.7-3.9,2.1c-0.3,0.4-0.6,0.8-0.8,1.3c-0.3,0.4-0.5,0.9-0.7,1.3
			c-0.7,1.7-0.9,3.3,0.1,4.5C27.2,88.1,26.6,93.4,32.7,95.6z M67.1,74.4c0.4,8.5-0.2,16.9-1.5,25.2c-0.1,0.5-0.2,1-0.3,1.6
			c-0.4,0.3-0.8,0.6-1.3,1c-6.5,5.3-13.5,10-21,13.9c-2.3-7.8-2-16,1.9-25c0.2-0.5,0.4-1,0.6-1.4c0.3-0.4,0.6-0.8,0.9-1.2
			C52.3,80.7,59.2,76.3,67.1,74.4z"/>
		<path class="st1" d="M68.1,48c8.4-4.8-4.2-7.5-9-4.6C50.7,48.2,63.3,50.8,68.1,48z"/>
		<path class="st1" d="M102.6,28.1c4.9-2.9,8.9-15,0.5-10.2C98.2,20.8,94.2,33,102.6,28.1z"/>
		<path class="st1" d="M122,45.2l0.9,3.3c8.2,4.7,16.7,8.7,25.7,11.6c0.5,0.3,1,0.5,1.5,0.6c0.5-0.2,1-0.4,1.5-0.6
			c9-3,17.5-6.9,25.7-11.6l0.9-3.3l2.3-8.6l2-7.3c-6.1-4.6-13.3-7.1-20.8-8.1c1.3-6.4-3.7-8.6-6.1-15.1c-0.6-1.4-2-2.2-3.8-2.3
			c-0.5-0.1-1-0.1-1.5-0.1c-0.5,0-1,0-1.5,0.1c-1.8,0.2-3.3,0.9-3.9,2.3c-2.4,6.5-7.4,8.7-6.1,15.1c-7.5,1-14.8,3.5-20.8,8.1
			l1.9,7.3L122,45.2z M148.5,29.6c0.5,0,1-0.1,1.5-0.2c0.5,0,1,0.1,1.5,0.2c9.7,1.2,17,5,22.6,10.8c-7.1,4.6-14.7,8.3-22.6,11.3
			c-0.5,0.2-1,0.4-1.5,0.6c-0.5-0.2-1-0.3-1.5-0.6c-7.9-3-15.4-6.7-22.6-11.3C131.5,34.6,138.8,30.8,148.5,29.6z"/>
		<g>
			<path class="st1" d="M150,246.9c-53.4,0-96.9-43.4-96.9-96.9c0-53.4,43.4-96.9,96.9-96.9c53.4,0,96.8,43.5,96.8,96.9
				C246.9,203.4,203.4,246.9,150,246.9z M150,60.5c-49.4,0-89.5,40.1-89.5,89.5s40.1,89.5,89.5,89.5c49.3,0,89.5-40.1,89.5-89.5
				S199.4,60.5,150,60.5z"/>
		</g>
	</g>
	<path class="st1" d="M96.1,112.7c5.5-0.1,11.8,0.2,18.2,0.4c1.5,0,3.1,0.2,4.6,0.4c2.2,0.2,3.1-1.9,4.2-3.6
		c2.2-3.4,4.7-6.4,7.4-9.4c2.7-2.9,5.6-5.5,8.7-7.9c2.5-1.9,5.1-3.6,7.8-5.3c1.9-1.1,3.7-1.3,5.5-0.4c1.7,0.8,3.2,2,4.8,3
		c3.5,2.3,6.8,4.9,9.9,7.8c2.8,2.6,5.4,5.5,7.7,8.7c1.5,2,2.7,4.1,4,6.2c0.3,0.6,0.8,0.7,1.4,0.7c11.3-0.8,22.6-0.6,34-0.6
		c1,0,1.9-0.4,2.9,0.3c1.5,1.1,1.5,3,0.1,4.2c-1.5,1.2-3.1,2.4-4.6,3.7c-1.5,1.3-2.6,2.9-3.4,4.7c-2.4,5.3-3.2,11-3.2,16.8
		c-0.1,8.4,0,16.9-0.1,25.3c0,2.5-0.8,4.9-1.1,7.4c-0.2,2.1-1,4.1-1.6,6.1c-0.8,2.7-2.1,5.2-3.3,7.8c-1.3,2.7-2.9,5.1-4.6,7.5
		c-1.5,2-3.2,3.9-5,5.7c-2.5,2.5-5.2,4.7-8.1,6.6c-2.9,2-6.1,3.6-9.4,5c-3.3,1.4-6.8,2.4-10.2,3.3c-2.2,0.6-4.6,0.5-6.9,0.9
		c-5.9,1.1-11.8,0.1-17.6-0.9c-3.6-0.6-7.1-1.8-10.5-3.3c-3.8-1.7-7.3-3.5-10.7-5.9c-3.9-2.7-7.5-5.9-10.5-9.5
		c-2.8-3.4-5.2-7.1-7-11.1c-1.3-2.8-2.3-5.7-3.2-8.7c-2-7-2.1-14.1-2-21.3c0.1-6.1,0.2-12.1-0.2-18.2c-0.2-3.7-0.7-7.3-2-10.8
		c-1.3-3.5-3-6.8-6.4-9.1c-0.9-0.6-1.8-1.4-2.7-2.1c-1.1-0.8-1.6-1.8-1.2-3c0.4-1.2,1.6-1.6,2.8-1.6
		C88.1,112.7,91.5,112.7,96.1,112.7z M188,147.5c0.1,5.7-0.6,11.4-2.2,16.8c-0.9,3.3-2.2,6.4-3.8,9.5c-2.1,4-4.6,7.6-7.5,11
		c-2.9,3.4-6.3,6.2-9.9,8.9c-2.2,1.6-4,1.4-5.3-0.7c-0.6-1,0.3-1.7,0.4-2.6c0.3-2.2,0.9-4.3,1.3-6.5c0.6-3.1,1.2-6.3,1.4-9.5
		c0.3-5.4,0.6-10.7-0.4-16.1c-0.7-3.6-1.5-7.2-3-10.6c-1.3-3.1-2.9-5.9-5-8.5c-2.3-2.8-4.7-5.3-7.6-7.5c-2.4-1.8-5-3.5-7.7-4.7
		c-1.9-0.9-3.8-1.7-5.8-2.2c-2.1-0.5-2.2-1.1-1.1-2.9c0.7-1.2,1.3-2.5,2.1-3.8c0.8-1.2,1.7-1.1,2.6-0.6c1.7,0.9,3.5,1.3,5.2,2.2
		c2.4,1.3,5,2.3,7.2,4c1,0.8,1.9,0.6,2.8-0.1c3.3-2.2,6.9-3.9,10.7-5.4c2.6-1,5.2-1.9,7.9-2.5c1-0.2,1-0.9,0.5-1.6
		c-1-1.4-2-2.8-3.1-4.2c-2-2.6-4.2-4.9-6.6-7.1c-3.1-2.9-6.4-5.3-9.9-7.7c-0.9-0.6-1.7-0.2-2.4,0.3c-3.6,2.3-7,5-10,8
		c-2.3,2.3-4.3,4.9-6.3,7.5c-1.7,2.3-3.3,4.7-4.7,7.2c-1.7,3-3.3,6-4.4,9.2c-1.4,4.2-2.3,8.6-2.9,13c-1.3,8.4-0.1,16.6,2.5,24.5
		c1.4,4.3,3.5,8.5,6.5,12c0.2,0.2,0.1,0.8,0.6,0.6c0.5-0.1,0.3-0.6,0.3-1c-0.1-0.8-0.1-1.7-0.2-2.5c-1-8.6,0-16.9,2.5-25.1
		c1.4-4.9,4-9.3,6.9-13.5c0.5-0.8,1.3-1.1,2.2-0.5c0.9,0.7,2,1.3,2.7,2.1c0.6,0.6,1.6,0.9,1.8,1.9c0.2,1.1-0.8,1.5-1.3,2.2
		c-1.8,3-3.5,6-4.7,9.3c-1.1,3.2-2,6.5-2.3,9.9c-0.5,6.3-0.6,12.7,0.6,19c0.4,2.3,0.6,4.7,1.2,7c0.5,1.8,0.8,3.7,1.2,5.6
		c0.2,1.3-0.4,2.4-1.6,2.9c-1.4,0.6-2.4-0.2-3.3-0.9c-2.2-1.6-4.5-3.3-6.5-5.1c-3.7-3.4-6.8-7.3-9.3-11.6c-2.7-4.5-4.6-9.3-5.9-14.4
		c-0.9-3.4-1.4-6.8-1.6-10.2c-0.5-6.2-0.1-12.4,1.1-18.5c0.7-3.7,1.7-7.4,3.1-11c0.7-1.7,0.7-1.9-1.2-2c-3-0.2-6.1-0.3-9.1-0.4
		c-2.6-0.1-5.2,0-7.8,0c-0.8,0-1.5-0.1-0.9,1.2c1.3,2.8,2.4,5.7,3.1,8.7c1.1,4.5,1.5,9.1,1.7,13.7c0.2,3.9,0,7.8-0.1,11.7
		c-0.2,6.9-0.3,13.8,1.6,20.5c0.6,2.3,1.3,4.5,2.3,6.6c1.3,2.9,3,5.6,4.9,8.3c2.2,3.1,5,5.7,7.8,8.2c2.4,2.2,5.3,3.9,8.1,5.4
		c3.5,1.9,7.2,3.3,11.1,4.1c4,0.8,8.1,1.7,12.3,1.6c2.3,0,4.5-0.3,6.8-0.7c2.4-0.4,4.7-0.6,7.1-1.3c2.7-0.8,5.4-1.8,8-2.9
		c4.5-1.9,8.4-4.6,11.9-7.8c3.8-3.4,6.8-7.5,9.2-12c1.6-3.1,2.8-6.4,3.6-9.8c1-4.1,0.9-8.3,1.1-12.5c0.1-4.4,0-8.9-0.2-13.3
		c-0.2-7.1,0-14.3,1.9-21.3c0.6-2.2,1.5-4.2,2.4-6.3c0.2-0.5,0.7-1,0.4-1.5c-0.3-0.6-1-0.4-1.5-0.4c-4.5,0-9,0.2-13.4,0.2
		c-4.3,0-8.4,0.8-12.6,1.6c-0.7,0.1-1.4,0.2-2.1,0.4c-3.4,1.2-6.9,2.1-10.1,3.6c-2,0.9-4,2-6,3c-0.6,0.3-0.7,0.7-0.1,1.2
		c1.6,1.4,3,3.1,4.2,4.8c2.5,3.5,4.5,7.1,6,11.2c1.5,4,2.4,8.1,3,12.3c0.8,5.4,0.8,10.9,0.2,16.3c-0.1,0.7-0.6,1.5,0.1,2.2
		c0.5-0.6,1.2-1.1,1.6-1.8c2.5-3.9,4.6-8.1,6-12.6c1.4-4.7,2.2-9.4,2.4-14.2c0.3-6.9-1.1-13.6-2.9-20.2c-0.3-1.1,0.2-1.4,1-1.5
		c1.7-0.3,3.3-0.4,5-0.7c1-0.1,1.5,0.2,1.7,1.2c0.3,1.3,0.6,2.7,1,4.1C187.5,136.8,187.8,142.1,188,147.5z"/>
</g>
</svg>
